<svg id="visual" viewBox="0 0 900 600" width="900" height="600" xmlns="http://www.w3.org/2000/svg" xmlns:xlink="http://www.w3.org/1999/xlink" version="1.1"><rect x="0" y="0" width="900" height="600" fill="#ffffff"></rect><path d="M0 414L16.7 401.3C33.3 388.7 66.7 363.3 100 360.5C133.3 357.7 166.7 377.3 200 387.2C233.3 397 266.7 397 300 386.3C333.3 375.7 366.7 354.3 400 338.5C433.3 322.7 466.7 312.3 500 317.2C533.3 322 566.7 342 600 341.8C633.3 341.7 666.7 321.3 700 322.2C733.3 323 766.7 345 800 356.5C833.3 368 866.7 369 883.3 369.5L900 370L900 601L883.3 601C866.7 601 833.3 601 800 601C766.7 601 733.3 601 700 601C666.7 601 633.3 601 600 601C566.7 601 533.3 601 500 601C466.7 601 433.3 601 400 601C366.7 601 333.3 601 300 601C266.7 601 233.3 601 200 601C166.7 601 133.3 601 100 601C66.7 601 33.3 601 16.7 601L0 601Z" fill="#0056b3"></path><path d="M0 430L16.7 418C33.3 406 66.7 382 100 380.8C133.3 379.7 166.7 401.3 200 402C233.3 402.7 266.7 382.3 300 380.5C333.3 378.7 366.7 395.3 400 398C433.3 400.7 466.7 389.3 500 388C533.3 386.7 566.7 395.3 600 391.2C633.3 387 666.7 370 700 369.2C733.3 368.3 766.7 383.7 800 386.2C833.3 388.7 866.7 378.3 883.3 373.2L900 368L900 601L883.3 601C866.7 601 833.3 601 800 601C766.7 601 733.3 601 700 601C666.7 601 633.3 601 600 601C566.7 601 533.3 601 500 601C466.7 601 433.3 601 400 601C366.7 601 333.3 601 300 601C266.7 601 233.3 601 200 601C166.7 601 133.3 601 100 601C66.7 601 33.3 601 16.7 601L0 601Z" fill="#8153b3"></path><path d="M0 441L16.7 435.3C33.3 429.7 66.7 418.3 100 423.8C133.3 429.3 166.7 451.7 200 457.5C233.3 463.3 266.7 452.7 300 441.5C333.3 430.3 366.7 418.7 400 427.2C433.3 435.7 466.7 464.3 500 475.8C533.3 487.3 566.7 481.7 600 469.8C633.3 458 666.7 440 700 431.5C733.3 423 766.7 424 800 435.8C833.3 447.7 866.7 470.3 883.3 481.7L900 493L900 601L883.3 601C866.7 601 833.3 601 800 601C766.7 601 733.3 601 700 601C666.7 601 633.3 601 600 601C566.7 601 533.3 601 500 601C466.7 601 433.3 601 400 601C366.7 601 333.3 601 300 601C266.7 601 233.3 601 200 601C166.7 601 133.3 601 100 601C66.7 601 33.3 601 16.7 601L0 601Z" fill="#bf4ea3"></path><path d="M0 515L16.7 515.7C33.3 516.3 66.7 517.7 100 510.8C133.3 504 166.7 489 200 485.2C233.3 481.3 266.7 488.7 300 497.7C333.3 506.7 366.7 517.3 400 513C433.3 508.7 466.7 489.3 500 480.8C533.3 472.3 566.7 474.7 600 483.8C633.3 493 666.7 509 700 513.2C733.3 517.3 766.7 509.7 800 500C833.3 490.3 866.7 478.7 883.3 472.8L900 467L900 601L883.3 601C866.7 601 833.3 601 800 601C766.7 601 733.3 601 700 601C666.7 601 633.3 601 600 601C566.7 601 533.3 601 500 601C466.7 601 433.3 601 400 601C366.7 601 333.3 601 300 601C266.7 601 233.3 601 200 601C166.7 601 133.3 601 100 601C66.7 601 33.3 601 16.7 601L0 601Z" fill="#e95489"></path><path d="M0 523L16.7 521.7C33.3 520.3 66.7 517.7 100 517.3C133.3 517 166.7 519 200 524.2C233.3 529.3 266.7 537.7 300 542.8C333.3 548 366.7 550 400 553.3C433.3 556.7 466.7 561.3 500 556.7C533.3 552 566.7 538 600 528.8C633.3 519.7 666.7 515.3 700 520C733.3 524.7 766.7 538.3 800 541.7C833.3 545 866.7 538 883.3 534.5L900 531L900 601L883.3 601C866.7 601 833.3 601 800 601C766.7 601 733.3 601 700 601C666.7 601 633.3 601 600 601C566.7 601 533.3 601 500 601C466.7 601 433.3 601 400 601C366.7 601 333.3 601 300 601C266.7 601 233.3 601 200 601C166.7 601 133.3 601 100 601C66.7 601 33.3 601 16.7 601L0 601Z" fill="#ff6b6b"></path></svg>