<svg id="visual" viewBox="0 0 900 600" width="900" height="600" xmlns="http://www.w3.org/2000/svg" xmlns:xlink="http://www.w3.org/1999/xlink" version="1.1"><rect x="0" y="0" width="900" height="600" fill="#ffffff"></rect><path d="M0 365L16.7 372.5C33.3 380 66.7 395 100 406.7C133.3 418.3 166.7 426.7 200 423.2C233.3 419.7 266.7 404.3 300 396.5C333.3 388.7 366.7 388.3 400 396.7C433.3 405 466.7 422 500 419.7C533.3 417.3 566.7 395.7 600 375.2C633.3 354.7 666.7 335.3 700 325.2C733.3 315 766.7 314 800 331.5C833.3 349 866.7 385 883.3 403L900 421L900 601L883.3 601C866.7 601 833.3 601 800 601C766.7 601 733.3 601 700 601C666.7 601 633.3 601 600 601C566.7 601 533.3 601 500 601C466.7 601 433.3 601 400 601C366.7 601 333.3 601 300 601C266.7 601 233.3 601 200 601C166.7 601 133.3 601 100 601C66.7 601 33.3 601 16.7 601L0 601Z" fill="#0056b3"></path><path d="M0 372L16.7 383.8C33.3 395.7 66.7 419.3 100 427.2C133.3 435 166.7 427 200 421.8C233.3 416.7 266.7 414.3 300 423.5C333.3 432.7 366.7 453.3 400 458.8C433.3 464.3 466.7 454.7 500 456.2C533.3 457.7 566.7 470.3 600 471.8C633.3 473.3 666.7 463.7 700 449.5C733.3 435.3 766.7 416.7 800 418C833.3 419.3 866.7 440.7 883.3 451.3L900 462L900 601L883.3 601C866.7 601 833.3 601 800 601C766.7 601 733.3 601 700 601C666.7 601 633.3 601 600 601C566.7 601 533.3 601 500 601C466.7 601 433.3 601 400 601C366.7 601 333.3 601 300 601C266.7 601 233.3 601 200 601C166.7 601 133.3 601 100 601C66.7 601 33.3 601 16.7 601L0 601Z" fill="#8153b3"></path><path d="M0 493L16.7 484.7C33.3 476.3 66.7 459.7 100 455.3C133.3 451 166.7 459 200 460.5C233.3 462 266.7 457 300 460.7C333.3 464.3 366.7 476.7 400 482.5C433.3 488.3 466.7 487.7 500 478.7C533.3 469.7 566.7 452.3 600 443.5C633.3 434.7 666.7 434.3 700 441C733.3 447.7 766.7 461.3 800 466.3C833.3 471.3 866.7 467.7 883.3 465.8L900 464L900 601L883.3 601C866.7 601 833.3 601 800 601C766.7 601 733.3 601 700 601C666.7 601 633.3 601 600 601C566.7 601 533.3 601 500 601C466.7 601 433.3 601 400 601C366.7 601 333.3 601 300 601C266.7 601 233.3 601 200 601C166.7 601 133.3 601 100 601C66.7 601 33.3 601 16.7 601L0 601Z" fill="#bf4ea3"></path><path d="M0 469L16.7 468.5C33.3 468 66.7 467 100 473C133.3 479 166.7 492 200 495.2C233.3 498.3 266.7 491.7 300 489.5C333.3 487.3 366.7 489.7 400 498.2C433.3 506.7 466.7 521.3 500 525.8C533.3 530.3 566.7 524.7 600 516.5C633.3 508.3 666.7 497.7 700 490.2C733.3 482.7 766.7 478.3 800 481.3C833.3 484.3 866.7 494.7 883.3 499.8L900 505L900 601L883.3 601C866.7 601 833.3 601 800 601C766.7 601 733.3 601 700 601C666.7 601 633.3 601 600 601C566.7 601 533.3 601 500 601C466.7 601 433.3 601 400 601C366.7 601 333.3 601 300 601C266.7 601 233.3 601 200 601C166.7 601 133.3 601 100 601C66.7 601 33.3 601 16.7 601L0 601Z" fill="#e95489"></path><path d="M0 560L16.7 560.3C33.3 560.7 66.7 561.3 100 556.7C133.3 552 166.7 542 200 536.8C233.3 531.7 266.7 531.3 300 536.7C333.3 542 366.7 553 400 551.8C433.3 550.7 466.7 537.3 500 534.2C533.3 531 566.7 538 600 537.8C633.3 537.7 666.7 530.3 700 530.5C733.3 530.7 766.7 538.3 800 542.7C833.3 547 866.7 548 883.3 548.5L900 549L900 601L883.3 601C866.7 601 833.3 601 800 601C766.7 601 733.3 601 700 601C666.7 601 633.3 601 600 601C566.7 601 533.3 601 500 601C466.7 601 433.3 601 400 601C366.7 601 333.3 601 300 601C266.7 601 233.3 601 200 601C166.7 601 133.3 601 100 601C66.7 601 33.3 601 16.7 601L0 601Z" fill="#ff6b6b"></path></svg>